<?xml version="1.0" encoding="UTF-8" standalone="no"?>
<!-- Created with Inkscape (http://www.inkscape.org/) -->

<svg
   xmlns:dc="http://purl.org/dc/elements/1.1/"
   xmlns:cc="http://creativecommons.org/ns#"
   xmlns:rdf="http://www.w3.org/1999/02/22-rdf-syntax-ns#"
   xmlns:svg="http://www.w3.org/2000/svg"
   xmlns="http://www.w3.org/2000/svg"
   xmlns:sodipodi="http://sodipodi.sourceforge.net/DTD/sodipodi-0.dtd"
   xmlns:inkscape="http://www.inkscape.org/namespaces/inkscape"
   width="10in"
   height="1in"
   viewBox="0 0 10 1"
   version="1.1"
   id="svg8"
   inkscape:version="0.92.5 (2060ec1f9f, 2020-04-08)"
   sodipodi:docname="showbegins.svg">
  <defs
     id="defs2" />
  <sodipodi:namedview
     id="base"
     pagecolor="#202020"
     bordercolor="#666666"
     borderopacity="1.0"
     inkscape:pageopacity="0"
     inkscape:pageshadow="2"
     inkscape:zoom="0.92"
     inkscape:cx="470.70219"
     inkscape:cy="-118.72747"
     inkscape:document-units="in"
     inkscape:current-layer="layer1"
     showgrid="true"
     units="in"
     guidecolor="#00ffff"
     guideopacity="0.49803922"
     inkscape:window-width="1920"
     inkscape:window-height="1016"
     inkscape:window-x="0"
     inkscape:window-y="0"
     inkscape:window-maximized="1"
     showguides="true"
     inkscape:guide-bbox="true"
     inkscape:snap-global="false"
     showborder="false">
    <inkscape:grid
       type="xygrid"
       id="grid815"
       units="in"
       spacingx="0.25"
       spacingy="0.25"
       empspacing="4"
       color="#3f00ff"
       opacity="0.1254902" />
  </sodipodi:namedview>
  <metadata
     id="metadata5">
    <rdf:RDF>
      <cc:Work
         rdf:about="">
        <dc:format>image/svg+xml</dc:format>
        <dc:type
           rdf:resource="http://purl.org/dc/dcmitype/StillImage" />
        <dc:title></dc:title>
        <dc:creator>
          <cc:Agent>
            <dc:title>Doctor Wizard</dc:title>
          </cc:Agent>
        </dc:creator>
        <dc:rights>
          <cc:Agent>
            <dc:title>(C) 2020+ by Doctor Wizard</dc:title>
          </cc:Agent>
        </dc:rights>
        <dc:publisher>
          <cc:Agent>
            <dc:title>Doctor Wizard</dc:title>
          </cc:Agent>
        </dc:publisher>
        <dc:source>Doctor Wizard's Giant Ever-Pulsating Brain</dc:source>
      </cc:Work>
    </rdf:RDF>
  </metadata>
  <g
     inkscape:label="Layer 1"
     inkscape:groupmode="layer"
     id="layer1"
     transform="translate(0,289.60002)">
    <g
       id="g4718"
       transform="matrix(0.46605199,0,0,0.54111874,-0.54160199,-120.79454)">
      <path
         d="m 1.8910006,-310.80801 q 0,0.057 -0.038,0.094 -0.038,0.038 -0.095,0.038 H 1.3820004 q -0.059,0 -0.097,-0.028 -0.045,-0.032 -0.045,-0.095 0,-0.024 0.01,-0.048 -0.01,-0.023 -0.01,-0.052 0,-0.05 0.043,-0.096 0.029,-0.031 0.092,-0.072 -0.054,-0.003 -0.09,-0.04 -0.035,-0.038 -0.035,-0.093 0,-0.031 0.005,-0.061 -0.005,-0.019 -0.005,-0.039 0,-0.136 0.092,-0.228 0.092,-0.092 0.2280001,-0.092 0.136,0 0.2280001,0.092 0.093,0.092 0.093,0.228 0,0.024 -0.004,0.048 0.004,0.026 0.004,0.052 0,0.093 -0.058,0.181 0.058,0.038 0.058,0.111 0,0.026 -0.009,0.05 0.009,0.024 0.009,0.05 z m -0.2920001,-0.439 q -0.013,-0.008 -0.029,-0.008 -0.023,0 -0.039,0.016 -0.016,0.016 -0.016,0.039 0,0.019 -0.005,0.037 0.06,-0.049 0.089,-0.084 z m 0.2270001,0.339 q 0,-0.03 -0.019,-0.049 -0.019,-0.019 -0.049,-0.019 h -0.164 q 0.11,-0.087 0.154,-0.138 0.078,-0.09 0.078,-0.186 0,-0.109 -0.074,-0.182 -0.073,-0.073 -0.182,-0.073 -0.1090001,0 -0.1820001,0.073 -0.073,0.073 -0.073,0.182 0,0.03 0.018,0.049 0.019,0.019 0.049,0.019 0.03,0 0.049,-0.019 0.019,-0.019 0.019,-0.049 0,-0.05 0.035,-0.085 0.035,-0.035 0.085,-0.035 0.05,0 0.085,0.035 0.036,0.035 0.036,0.085 0,0.089 -0.2130001,0.243 -0.075,0.054 -0.131,0.091 -0.042,0.028 -0.042,0.067 0,0.058 0.077,0.058 h 0.3760001 q 0.03,0 0.049,-0.018 0.019,-0.019 0.019,-0.049 z"
         style="font-style:normal;font-variant:normal;font-weight:normal;font-stretch:normal;font-size:1.00000036px;line-height:1.25;font-family:'Alba Super';-inkscape-font-specification:'Alba Super';letter-spacing:0px;word-spacing:0px;fill:#fde127;fill-opacity:1;stroke:#ff7143;stroke-width:0.03937008;stroke-linejoin:round;stroke-miterlimit:4;stroke-dasharray:none;stroke-opacity:1"
         id="path4576"
         inkscape:connector-curvature="0" />
      <path
         d="m 2.6940007,-311.09701 q 0,0.177 -0.123,0.3 -0.1230001,0.123 -0.3000001,0.123 -0.1780001,0 -0.3010001,-0.123 -0.1220001,-0.122 -0.1220001,-0.3 0,-0.025 0.003,-0.05 -0.003,-0.025 -0.003,-0.05 0,-0.178 0.1220001,-0.3 0.123,-0.123 0.3010001,-0.123 0.178,0 0.3000001,0.123 0.123,0.122 0.123,0.3 0,0.026 -0.003,0.051 0.003,0.024 0.003,0.049 z m -0.065,-0.1 q 0,-0.151 -0.104,-0.254 -0.1030001,-0.104 -0.2540001,-0.104 -0.1510001,0 -0.2550001,0.104 -0.103,0.103 -0.103,0.254 0,0.151 0.103,0.255 0.104,0.103 0.2550001,0.103 0.151,0 0.2540001,-0.103 0.104,-0.104 0.104,-0.255 z m -0.135,0 q 0,0.095 -0.064,0.159 -0.064,0.064 -0.159,0.064 -0.094,0 -0.1590001,-0.064 -0.064,-0.064 -0.064,-0.159 0,-0.096 0.064,-0.159 0.064,-0.064 0.1590001,-0.064 0.095,0 0.159,0.064 0.064,0.064 0.064,0.159 z m -0.072,0.049 q -0.011,-0.034 -0.038,-0.062 -0.046,-0.045 -0.113,-0.045 -0.054,0 -0.095,0.03 -0.041,0.029 -0.055,0.078 0.015,0.048 0.055,0.078 0.041,0.03 0.095,0.03 0.054,0 0.095,-0.03 0.041,-0.03 0.056,-0.079 z"
         style="font-style:normal;font-variant:normal;font-weight:normal;font-stretch:normal;font-size:1.00000036px;line-height:1.25;font-family:'Alba Super';-inkscape-font-specification:'Alba Super';letter-spacing:0px;word-spacing:0px;fill:#fde127;fill-opacity:1;stroke:#ff7143;stroke-width:0.03937008;stroke-linejoin:round;stroke-miterlimit:4;stroke-dasharray:none;stroke-opacity:1"
         id="path4578"
         inkscape:connector-curvature="0" />
      <path
         d="m 3.2999996,-310.80801 q 0,0.057 -0.038,0.094 -0.038,0.038 -0.095,0.038 H 2.7909994 q -0.059,0 -0.097,-0.028 -0.045,-0.032 -0.045,-0.095 0,-0.024 0.01,-0.048 -0.01,-0.023 -0.01,-0.052 0,-0.05 0.043,-0.096 0.029,-0.031 0.092,-0.072 -0.054,-0.003 -0.09,-0.04 -0.035,-0.038 -0.035,-0.093 0,-0.031 0.005,-0.061 -0.005,-0.019 -0.005,-0.039 0,-0.136 0.092,-0.228 0.092,-0.092 0.228,-0.092 0.1360001,0 0.2280001,0.092 0.093,0.092 0.093,0.228 0,0.024 -0.004,0.048 0.004,0.026 0.004,0.052 0,0.093 -0.058,0.181 0.058,0.038 0.058,0.111 0,0.026 -0.009,0.05 0.009,0.024 0.009,0.05 z m -0.2920002,-0.439 q -0.013,-0.008 -0.029,-0.008 -0.023,0 -0.039,0.016 -0.016,0.016 -0.016,0.039 0,0.019 -0.005,0.037 0.06,-0.049 0.089,-0.084 z m 0.2270001,0.339 q 0,-0.03 -0.019,-0.049 -0.019,-0.019 -0.049,-0.019 H 3.0029994 q 0.1100001,-0.087 0.1540001,-0.138 0.078,-0.09 0.078,-0.186 0,-0.109 -0.074,-0.182 -0.073,-0.073 -0.1820001,-0.073 -0.109,0 -0.182,0.073 -0.073,0.073 -0.073,0.182 0,0.03 0.018,0.049 0.019,0.019 0.049,0.019 0.03,0 0.049,-0.019 0.019,-0.019 0.019,-0.049 0,-0.05 0.035,-0.085 0.035,-0.035 0.085,-0.035 0.05,0 0.085,0.035 0.036,0.035 0.036,0.085 0,0.089 -0.2130001,0.243 -0.075,0.054 -0.131,0.091 -0.042,0.028 -0.042,0.067 0,0.058 0.077,0.058 h 0.3760001 q 0.03,0 0.049,-0.018 0.019,-0.019 0.019,-0.049 z"
         style="font-style:normal;font-variant:normal;font-weight:normal;font-stretch:normal;font-size:1.00000036px;line-height:1.25;font-family:'Alba Super';-inkscape-font-specification:'Alba Super';letter-spacing:0px;word-spacing:0px;fill:#fde127;fill-opacity:1;stroke:#ff7143;stroke-width:0.03937008;stroke-linejoin:round;stroke-miterlimit:4;stroke-dasharray:none;stroke-opacity:1"
         id="path4580"
         inkscape:connector-curvature="0" />
      <path
         d="m 4.1029997,-311.09701 q 0,0.177 -0.123,0.3 -0.1230001,0.123 -0.3000002,0.123 -0.178,0 -0.3010001,-0.123 -0.122,-0.122 -0.122,-0.3 0,-0.025 0.003,-0.05 -0.003,-0.025 -0.003,-0.05 0,-0.178 0.122,-0.3 0.1230001,-0.123 0.3010001,-0.123 0.1780001,0 0.3000002,0.123 0.123,0.122 0.123,0.3 0,0.026 -0.003,0.051 0.003,0.024 0.003,0.049 z m -0.065,-0.1 q 0,-0.151 -0.1040001,-0.254 -0.103,-0.104 -0.2540001,-0.104 -0.151,0 -0.255,0.104 -0.1030001,0.103 -0.1030001,0.254 0,0.151 0.1030001,0.255 0.104,0.103 0.255,0.103 0.1510001,0 0.2540001,-0.103 0.1040001,-0.104 0.1040001,-0.255 z m -0.1350001,0 q 0,0.095 -0.064,0.159 -0.064,0.064 -0.1590001,0.064 -0.094,0 -0.159,-0.064 -0.064,-0.064 -0.064,-0.159 0,-0.096 0.064,-0.159 0.064,-0.064 0.159,-0.064 0.095,0 0.1590001,0.064 0.064,0.064 0.064,0.159 z m -0.072,0.049 q -0.011,-0.034 -0.038,-0.062 -0.046,-0.045 -0.1130001,-0.045 -0.054,0 -0.095,0.03 -0.041,0.029 -0.055,0.078 0.015,0.048 0.055,0.078 0.041,0.03 0.095,0.03 0.054,0 0.095,-0.03 0.041,-0.03 0.056,-0.079 z"
         style="font-style:normal;font-variant:normal;font-weight:normal;font-stretch:normal;font-size:1.00000036px;line-height:1.25;font-family:'Alba Super';-inkscape-font-specification:'Alba Super';letter-spacing:0px;word-spacing:0px;fill:#fde127;fill-opacity:1;stroke:#ff7143;stroke-width:0.03937008;stroke-linejoin:round;stroke-miterlimit:4;stroke-dasharray:none;stroke-opacity:1"
         id="path4582"
         inkscape:connector-curvature="0" />
      <path
         d="m 4.8919982,-311.38801 q 0,0.057 -0.036,0.093 -0.035,0.035 -0.089,0.039 l -0.003,0.32 q -10e-4,0.109 -0.077,0.185 -0.075,0.076 -0.184,0.076 -0.057,0 -0.095,-0.038 -0.037,-0.037 -0.037,-0.094 0,-0.026 0.009,-0.05 -0.009,-0.024 -0.009,-0.05 0,-0.056 0.037,-0.094 0.037,-0.038 0.093,-0.039 l -0.003,-0.219 q 0,-0.014 0.001,-0.029 l -0.001,-0.071 q -0.002,-0.109 0.074,-0.185 0.077,-0.076 0.1870001,-0.076 0.057,0 0.095,0.038 0.038,0.037 0.038,0.094 0,0.027 -0.009,0.051 0.009,0.023 0.009,0.049 z m -0.065,-0.1 q 0,-0.03 -0.019,-0.048 -0.019,-0.019 -0.049,-0.019 -0.083,0 -0.1400001,0.057 -0.056,0.056 -0.056,0.139 l 0.001,0.323 q 0,0.026 -0.018,0.044 -0.017,0.017 -0.043,0.017 -0.03,0 -0.049,0.019 -0.018,0.019 -0.018,0.049 0,0.03 0.018,0.049 0.019,0.018 0.049,0.018 0.082,0 0.139,-0.056 0.057,-0.057 0.057,-0.14 l -10e-4,-0.323 q 0,-0.056 0.064,-0.061 0.065,-0.006 0.065,-0.068 z"
         style="font-style:normal;font-variant:normal;font-weight:normal;font-stretch:normal;font-size:1.00000036px;line-height:1.25;font-family:'Alba Super';-inkscape-font-specification:'Alba Super';letter-spacing:0px;word-spacing:0px;fill:#fde127;fill-opacity:1;stroke:#ff7143;stroke-width:0.03937008;stroke-linejoin:round;stroke-miterlimit:4;stroke-dasharray:none;stroke-opacity:1"
         id="path4584"
         inkscape:connector-curvature="0" />
      <path
         d="m 5.5689978,-310.58801 q 0,0.057 -0.038,0.094 -0.037,0.038 -0.094,0.038 -0.121,0 -0.203,-0.081 -0.082,-0.08 -0.082,-0.2 l -0.001,-0.298 q 0,-0.015 -0.015,-0.015 -0.016,0 -0.016,0.015 v 0.227 q 0,0.057 -0.038,0.094 -0.038,0.038 -0.095,0.038 -0.057,0 -0.095,-0.038 -0.037,-0.037 -0.037,-0.094 v -0.68 q 0,-0.057 0.037,-0.094 0.038,-0.038 0.095,-0.038 0.057,0 0.095,0.038 0.038,0.037 0.038,0.094 v 0.073 q 0.008,0 0.016,0 0.1180001,0 0.1990001,0.081 0.082,0.081 0.082,0.199 v 0.298 q 0,0.016 0.016,0.016 0.059,0 0.097,0.037 0.039,0.038 0.039,0.096 0,0.027 -0.009,0.05 0.009,0.023 0.009,0.05 z m -0.065,-0.1 q 0,-0.03 -0.019,-0.049 -0.018,-0.019 -0.048,-0.019 h -0.004 q -0.034,0 -0.058,-0.024 -0.023,-0.023 -0.023,-0.057 v -0.298 q 0,-0.092 -0.062,-0.153 -0.062,-0.062 -0.1540001,-0.062 -0.043,0 -0.081,0.015 v -0.153 q 0,-0.03 -0.019,-0.048 -0.019,-0.019 -0.049,-0.019 -0.03,0 -0.049,0.019 -0.018,0.018 -0.018,0.048 v 0.58 q 0,0.03 0.018,0.049 0.019,0.018 0.049,0.018 0.03,0 0.049,-0.018 0.019,-0.019 0.019,-0.049 v -0.227 q 0,-0.034 0.023,-0.057 0.024,-0.023 0.058,-0.023 0.033,0 0.056,0.024 0.024,0.023 0.024,0.056 l 0.001,0.298 q 0,0.092 0.062,0.154 0.062,0.062 0.154,0.062 h 0.004 q 0.03,0 0.048,-0.019 0.019,-0.018 0.019,-0.048 z"
         style="font-style:normal;font-variant:normal;font-weight:normal;font-stretch:normal;font-size:1.00000036px;line-height:1.25;font-family:'Alba Super';-inkscape-font-specification:'Alba Super';letter-spacing:0px;word-spacing:0px;fill:#fde127;fill-opacity:1;stroke:#ff7143;stroke-width:0.03937008;stroke-linejoin:round;stroke-miterlimit:4;stroke-dasharray:none;stroke-opacity:1"
         id="path4586"
         inkscape:connector-curvature="0" />
      <path
         d="m 6.0229963,-310.99501 q 0,0.135 -0.093,0.228 -0.093,0.093 -0.228,0.093 -0.1360001,0 -0.2280001,-0.093 -0.092,-0.092 -0.092,-0.228 0,-0.025 0.004,-0.05 -0.004,-0.025 -0.004,-0.05 0,-0.136 0.092,-0.228 0.092,-0.092 0.2280001,-0.092 0.136,0 0.228,0.092 0.093,0.092 0.093,0.228 0,0.026 -0.004,0.051 0.004,0.024 0.004,0.049 z m -0.065,-0.1 q 0,-0.109 -0.074,-0.182 -0.073,-0.073 -0.182,-0.073 -0.1090001,0 -0.1820001,0.073 -0.073,0.073 -0.073,0.182 0,0.109 0.073,0.183 0.073,0.073 0.1820001,0.073 0.109,0 0.182,-0.073 0.074,-0.074 0.074,-0.183 z m -0.135,0 q 0,0.05 -0.036,0.086 -0.035,0.035 -0.085,0.035 -0.05,0 -0.085,-0.035 -0.035,-0.036 -0.035,-0.086 0,-0.05 0.035,-0.085 0.035,-0.035 0.085,-0.035 0.05,0 0.085,0.035 0.036,0.035 0.036,0.085 z"
         style="font-style:normal;font-variant:normal;font-weight:normal;font-stretch:normal;font-size:1.00000036px;line-height:1.25;font-family:'Alba Super';-inkscape-font-specification:'Alba Super';letter-spacing:0px;word-spacing:0px;fill:#fde127;fill-opacity:1;stroke:#ff7143;stroke-width:0.03937008;stroke-linejoin:round;stroke-miterlimit:4;stroke-dasharray:none;stroke-opacity:1"
         id="path4588"
         inkscape:connector-curvature="0" />
      <path
         d="m 6.8259955,-310.95901 q 0,0.118 -0.081,0.199 -0.081,0.082 -0.1990001,0.082 -0.077,0 -0.14,-0.037 -0.064,0.037 -0.1400001,0.037 -0.119,0 -0.2,-0.081 -0.081,-0.081 -0.081,-0.2 v -0.326 q 0,-0.061 0.036,-0.096 0.036,-0.036 0.097,-0.036 0.057,0 0.094,0.038 0.038,0.037 0.038,0.094 v 0.226 q 0,0.016 0.016,0.016 0.016,0 0.016,-0.016 v -0.226 q 0,-0.057 0.037,-0.094 0.038,-0.038 0.095,-0.038 0.061,0 0.097,0.036 0.036,0.035 0.036,0.096 v 0.242 q 0.014,0 0.014,-0.016 v -0.226 q 0,-0.057 0.038,-0.094 0.038,-0.038 0.095,-0.038 0.057,0 0.094,0.038 0.038,0.037 0.038,0.094 z m -0.065,-0.1 v -0.226 q 0,-0.03 -0.019,-0.048 -0.018,-0.019 -0.048,-0.019 -0.03,0 -0.049,0.019 -0.019,0.018 -0.019,0.048 v 0.226 q 0,0.034 -0.023,0.058 -0.023,0.023 -0.057,0.023 -0.04,0 -0.064,-0.031 v -0.276 q 0,-0.067 -0.068,-0.067 -0.03,0 -0.049,0.019 -0.018,0.018 -0.018,0.048 v 0.226 q 0,0.034 -0.024,0.058 -0.023,0.023 -0.057,0.023 -0.034,0 -0.058,-0.023 -0.023,-0.024 -0.023,-0.058 v -0.226 q 0,-0.03 -0.019,-0.048 -0.018,-0.019 -0.048,-0.019 -0.068,0 -0.068,0.067 v 0.226 q 0,0.093 0.061,0.155 0.062,0.061 0.155,0.061 0.079,0 0.1400001,-0.051 0.06,0.051 0.14,0.051 0.092,0 0.1530001,-0.062 0.062,-0.062 0.062,-0.154 z"
         style="font-style:normal;font-variant:normal;font-weight:normal;font-stretch:normal;font-size:1.00000036px;line-height:1.25;font-family:'Alba Super';-inkscape-font-specification:'Alba Super';letter-spacing:0px;word-spacing:0px;fill:#fde127;fill-opacity:1;stroke:#ff7143;stroke-width:0.03937008;stroke-linejoin:round;stroke-miterlimit:4;stroke-dasharray:none;stroke-opacity:1"
         id="path4590"
         inkscape:connector-curvature="0" />
      <path
         d="m 7.6489941,-310.95201 q 0,0.116 -0.081,0.196 -0.08,0.08 -0.196,0.08 -0.039,0 -0.071,-0.02 -0.032,0.02 -0.072,0.02 -0.057,0 -0.095,-0.038 -0.038,-0.037 -0.038,-0.094 v -0.536 q 0,-0.116 0.08,-0.196 0.08,-0.08 0.1960001,-0.08 0.116,0 0.196,0.08 0.081,0.08 0.081,0.196 0,0.026 -0.004,0.05 0.004,0.025 0.004,0.05 0,0.051 -0.017,0.096 0.017,0.045 0.017,0.096 0,0.026 -0.004,0.05 0.004,0.025 0.004,0.05 z m -0.065,-0.1 q 0,-0.085 -0.059,-0.145 0.059,-0.061 0.059,-0.147 0,-0.09 -0.061,-0.15 -0.061,-0.061 -0.151,-0.061 -0.09,0 -0.1510001,0.061 -0.06,0.06 -0.06,0.15 v 0.436 q 0,0.03 0.019,0.049 0.019,0.018 0.049,0.018 0.03,0 0.048,-0.018 0.019,-0.019 0.019,-0.049 v -0.436 q 0,-0.031 0.022,-0.053 0.023,-0.023 0.054,-0.023 0.032,0 0.054,0.022 0.023,0.022 0.023,0.054 0,0.032 -0.023,0.054 -0.022,0.022 -0.054,0.023 -0.032,0.001 -0.053,0.019 -0.021,0.017 -0.021,0.048 0,0.027 0.019,0.046 0.02,0.018 0.048,0.021 0.034,0.004 0.059,0.026 0.025,0.022 0.025,0.055 0,0.031 -0.023,0.054 -0.022,0.022 -0.053,0.022 -0.03,0 -0.049,0.019 -0.019,0.019 -0.019,0.049 0,0.029 0.019,0.048 0.019,0.019 0.048,0.019 0.09,0 0.151,-0.06 0.061,-0.061 0.061,-0.151 z"
         style="font-style:normal;font-variant:normal;font-weight:normal;font-stretch:normal;font-size:1.00000036px;line-height:1.25;font-family:'Alba Super';-inkscape-font-specification:'Alba Super';letter-spacing:0px;word-spacing:0px;fill:#fde127;fill-opacity:1;stroke:#ff7143;stroke-width:0.03937008;stroke-linejoin:round;stroke-miterlimit:4;stroke-dasharray:none;stroke-opacity:1"
         id="path4592"
         inkscape:connector-curvature="0" />
      <path
         d="m 8.2009935,-311.12601 q 0,0.063 -0.051,0.104 -0.008,0.008 -0.028,0.029 0.03,0.036 0.03,0.086 0,0.026 -0.009,0.05 0.009,0.024 0.009,0.05 0,0.057 -0.038,0.095 -0.037,0.038 -0.094,0.038 h -0.089 q -0.1350001,0 -0.2280001,-0.093 -0.092,-0.092 -0.092,-0.228 0,-0.025 0.004,-0.05 -0.004,-0.025 -0.004,-0.05 0,-0.136 0.092,-0.228 0.092,-0.092 0.2280001,-0.092 0.089,0 0.173,0.049 0.097,0.056 0.097,0.14 0,0.027 -0.01,0.05 0.01,0.024 0.01,0.05 z m -0.065,-0.1 q 0,-0.025 -0.02,-0.046 -0.076,-0.078 -0.185,-0.078 -0.1090001,0 -0.1820001,0.073 -0.073,0.073 -0.073,0.182 0,0.109 0.073,0.183 0.073,0.073 0.1820001,0.073 h 0.089 q 0.03,0 0.048,-0.019 0.019,-0.019 0.019,-0.049 0,-0.03 -0.019,-0.048 -0.018,-0.019 -0.048,-0.019 h -0.089 q -0.05,0 -0.085,-0.035 -0.035,-0.036 -0.035,-0.086 0,-0.05 0.035,-0.085 0.035,-0.035 0.085,-0.035 0.013,0 0.026,0.002 l -0.072,0.071 q -0.022,0.022 -0.022,0.047 0,0.028 0.02,0.049 0.021,0.021 0.049,0.021 0.025,0 0.047,-0.021 l 0.128,-0.125 q 0.029,-0.022 0.029,-0.055 z"
         style="font-style:normal;font-variant:normal;font-weight:normal;font-stretch:normal;font-size:1.00000036px;line-height:1.25;font-family:'Alba Super';-inkscape-font-specification:'Alba Super';letter-spacing:0px;word-spacing:0px;fill:#fde127;fill-opacity:1;stroke:#ff7143;stroke-width:0.03937008;stroke-linejoin:round;stroke-miterlimit:4;stroke-dasharray:none;stroke-opacity:1"
         id="path4594"
         inkscape:connector-curvature="0" />
      <path
         d="m 8.8059919,-310.46301 q 0,0.135 -0.093,0.227 -0.092,0.093 -0.2270001,0.093 -0.1350001,0 -0.2280001,-0.093 -0.092,-0.092 -0.092,-0.227 0,-0.025 0.004,-0.05 -0.004,-0.025 -0.004,-0.05 0,-0.125 0.081,-0.216 -0.081,-0.09 -0.081,-0.216 0,-0.025 0.004,-0.05 -0.004,-0.025 -0.004,-0.05 0,-0.136 0.092,-0.228 0.092,-0.092 0.2280001,-0.092 0.136,0 0.2280001,0.092 0.092,0.092 0.092,0.228 v 0.341 q 0,0.058 -0.026,0.109 0.026,0.035 0.026,0.082 0,0.031 -0.005,0.06 0.005,0.019 0.005,0.04 z m -0.2800001,-0.571 q -0.016,-0.016 -0.04,-0.016 -0.013,0 -0.024,0.005 0.01,0.005 0.032,0.007 0.023,0.002 0.032,0.004 z m 0.2150001,0.471 q 0,-0.03 -0.019,-0.049 -0.018,-0.019 -0.048,-0.019 -0.029,0 -0.049,0.019 -0.019,0.02 -0.019,0.049 0,0.05 -0.035,0.085 -0.035,0.035 -0.085,0.035 -0.05,0 -0.085,-0.035 -0.035,-0.035 -0.035,-0.085 0,-0.05 0.035,-0.086 0.035,-0.035 0.085,-0.035 h 0.086 q 0.071,0 0.1200001,-0.05 0.049,-0.049 0.049,-0.12 v -0.241 q 0,-0.109 -0.073,-0.182 -0.073,-0.073 -0.182,-0.073 -0.1090001,0 -0.1820001,0.073 -0.073,0.073 -0.073,0.182 0,0.109 0.073,0.183 0.073,0.073 0.1820001,0.073 0.03,0 0.049,-0.019 0.019,-0.019 0.019,-0.049 0,-0.03 -0.019,-0.048 -0.019,-0.019 -0.049,-0.019 -0.05,0 -0.085,-0.035 -0.035,-0.036 -0.035,-0.086 0,-0.05 0.035,-0.085 0.035,-0.035 0.085,-0.035 0.05,0 0.085,0.035 0.035,0.035 0.035,0.085 v 0.241 q 0,0.014 -0.01,0.024 -0.01,0.011 -0.024,0.011 h -0.087 q -0.1080001,0 -0.1810001,0.074 -0.073,0.074 -0.073,0.182 0,0.108 0.073,0.181 0.074,0.074 0.1820001,0.074 0.108,0 0.181,-0.074 0.074,-0.073 0.074,-0.181 z m -0.2210001,0.044 h -0.034 q -0.013,0 -0.024,0.006 0.011,0.005 0.024,0.005 0.019,0 0.034,-0.011 z"
         style="font-style:normal;font-variant:normal;font-weight:normal;font-stretch:normal;font-size:1.00000036px;line-height:1.25;font-family:'Alba Super';-inkscape-font-specification:'Alba Super';letter-spacing:0px;word-spacing:0px;fill:#fde127;fill-opacity:1;stroke:#ff7143;stroke-width:0.03937008;stroke-linejoin:round;stroke-miterlimit:4;stroke-dasharray:none;stroke-opacity:1"
         id="path4596"
         inkscape:connector-curvature="0" />
      <path
         d="m 9.0549915,-311.38101 q 0,0.038 -0.017,0.07 0.002,0.013 0.002,0.028 v 0.475 q 0,0.057 -0.039,0.094 -0.038,0.038 -0.094,0.038 -0.057,0 -0.095,-0.038 -0.037,-0.037 -0.037,-0.094 v -0.475 q 0,-0.014 0.002,-0.027 -0.018,-0.033 -0.018,-0.071 0,-0.026 0.009,-0.05 -0.009,-0.024 -0.009,-0.05 0,-0.061 0.043,-0.104 0.044,-0.044 0.105,-0.044 0.061,0 0.1040001,0.044 0.044,0.043 0.044,0.104 0,0.026 -0.009,0.05 0.009,0.024 0.009,0.05 z m -0.065,-0.1 q 0,-0.034 -0.025,-0.058 -0.024,-0.025 -0.058,-0.025 -0.034,0 -0.059,0.025 -0.024,0.024 -0.024,0.058 0,0.034 0.024,0.059 0.025,0.024 0.059,0.024 0.034,0 0.058,-0.024 0.025,-0.025 0.025,-0.059 z m -0.015,0.573 v -0.375 q 0,-0.067 -0.068,-0.067 -0.03,0 -0.049,0.019 -0.018,0.018 -0.018,0.048 v 0.375 q 0,0.03 0.018,0.049 0.019,0.018 0.049,0.018 0.03,0 0.049,-0.018 0.019,-0.019 0.019,-0.049 z"
         style="font-style:normal;font-variant:normal;font-weight:normal;font-stretch:normal;font-size:1.00000036px;line-height:1.25;font-family:'Alba Super';-inkscape-font-specification:'Alba Super';letter-spacing:0px;word-spacing:0px;fill:#fde127;fill-opacity:1;stroke:#ff7143;stroke-width:0.03937008;stroke-linejoin:round;stroke-miterlimit:4;stroke-dasharray:none;stroke-opacity:1"
         id="path4598"
         inkscape:connector-curvature="0" />
      <path
         d="m 9.7219901,-310.58801 q 0,0.057 -0.039,0.094 -0.038,0.038 -0.094,0.038 -0.121,0 -0.203,-0.08 -0.082,-0.08 -0.082,-0.201 v -0.047 l -10e-4,-0.251 q 0,-0.015 -0.015,-0.015 -0.016,0 -0.016,0.015 v 0.227 q 0,0.057 -0.038,0.094 -0.038,0.038 -0.095,0.038 -0.057,0 -0.095,-0.038 -0.037,-0.037 -0.037,-0.094 v -0.327 q 0,-0.118 0.081,-0.199 0.082,-0.081 0.2,-0.081 0.1180001,0 0.1990001,0.081 0.082,0.081 0.082,0.199 v 0.298 q 0,0.016 0.016,0.016 0.059,0 0.098,0.037 0.039,0.038 0.039,0.096 0,0.027 -0.009,0.05 0.009,0.023 0.009,0.05 z m -0.065,-0.1 q 0,-0.03 -0.019,-0.049 -0.019,-0.019 -0.049,-0.019 h -0.004 q -0.034,0 -0.058,-0.024 -0.023,-0.023 -0.023,-0.057 v -0.298 q 0,-0.092 -0.062,-0.153 -0.062,-0.062 -0.1540001,-0.062 -0.092,0 -0.154,0.062 -0.062,0.061 -0.062,0.153 v 0.227 q 0,0.03 0.018,0.049 0.019,0.018 0.049,0.018 0.03,0 0.049,-0.018 0.019,-0.019 0.019,-0.049 v -0.227 q 0,-0.034 0.023,-0.057 0.024,-0.023 0.058,-0.023 0.033,0 0.056,0.024 0.024,0.023 0.024,0.056 l 10e-4,0.298 q 0,0.093 0.061,0.154 0.062,0.062 0.155,0.062 h 0.004 q 0.03,0 0.049,-0.019 0.019,-0.018 0.019,-0.048 z"
         style="font-style:normal;font-variant:normal;font-weight:normal;font-stretch:normal;font-size:1.00000036px;line-height:1.25;font-family:'Alba Super';-inkscape-font-specification:'Alba Super';letter-spacing:0px;word-spacing:0px;fill:#fde127;fill-opacity:1;stroke:#ff7143;stroke-width:0.03937008;stroke-linejoin:round;stroke-miterlimit:4;stroke-dasharray:none;stroke-opacity:1"
         id="path4600"
         inkscape:connector-curvature="0" />
      <path
         d="m 10.056989,-311.18301 q 0,0.054 -0.036,0.091 -0.035001,0.037 -0.089001,0.041 0,-10e-4 -0.002,-0.004 -0.002,-0.003 -0.002,-0.004 -10e-4,0.025 -10e-4,0.063 v 0.019 q 0,0.075 -0.011,0.115 -0.016,0.059 -0.065,0.109 -0.076,0.076 -0.1850001,0.076 -0.057,0 -0.095,-0.038 -0.037,-0.037 -0.037,-0.094 0,-0.026 0.009,-0.05 -0.009,-0.024 -0.009,-0.05 0,-0.056 0.036,-0.094 0.037,-0.038 0.093,-0.039 v -0.012 q 0,-0.011 0.001,-0.023 -0.001,-0.013 -0.001,-0.022 v -0.055 q 0,-0.11 0.075,-0.185 0.076,-0.076 0.1860001,-0.076 0.057,0 0.095,0.038 0.038,0.037 0.038,0.094 0,0.027 -0.009,0.05 0.009,0.023 0.009,0.05 z m -0.065001,-0.1 q 0,-0.03 -0.019,-0.048 -0.019,-0.019 -0.049,-0.019 -0.083,0 -0.1400001,0.057 -0.056,0.056 -0.056,0.139 v 0.055 q 0,0.007 -0.001,0.041 0,0 0,0.02 0,0.026 -0.018,0.044 -0.017,0.017 -0.043,0.017 -0.03,0 -0.049,0.019 -0.018,0.019 -0.018,0.049 0,0.03 0.018,0.049 0.019,0.018 0.049,0.018 0.082,0 0.1380001,-0.057 0.057,-0.057 0.058,-0.139 l 10e-4,-0.116 q 0,-0.015 0.002,-0.022 0.003,-0.008 0.016,-0.021 0.013,-0.013 0.045,-0.018 0.033,-0.006 0.049,-0.022 0.017,-0.017 0.017,-0.046 z"
         style="font-style:normal;font-variant:normal;font-weight:normal;font-stretch:normal;font-size:1.00000036px;line-height:1.25;font-family:'Alba Super';-inkscape-font-specification:'Alba Super';letter-spacing:0px;word-spacing:0px;fill:#fde127;fill-opacity:1;stroke:#ff7143;stroke-width:0.03937008;stroke-linejoin:round;stroke-miterlimit:4;stroke-dasharray:none;stroke-opacity:1"
         id="path4602"
         inkscape:connector-curvature="0" />
      <path
         d="m 10.999774,-311.37543 q 0,0.057 -0.036,0.093 -0.035,0.035 -0.089,0.039 l -0.003,0.32 q -10e-4,0.109 -0.077,0.185 -0.075,0.076 -0.184,0.076 -0.057,0 -0.095,-0.038 -0.037,-0.037 -0.037,-0.094 0,-0.026 0.009,-0.05 -0.009,-0.024 -0.009,-0.05 0,-0.056 0.037,-0.094 0.037,-0.038 0.093,-0.039 l -0.003,-0.219 q 0,-0.014 10e-4,-0.029 l -10e-4,-0.071 q -0.002,-0.109 0.074,-0.185 0.077,-0.076 0.187,-0.076 0.057,0 0.095,0.038 0.038,0.037 0.038,0.094 0,0.027 -0.009,0.051 0.009,0.023 0.009,0.049 z m -0.065,-0.1 q 0,-0.03 -0.019,-0.048 -0.019,-0.019 -0.049,-0.019 -0.083,0 -0.14,0.057 -0.056,0.056 -0.056,0.139 l 10e-4,0.323 q 0,0.026 -0.018,0.044 -0.017,0.017 -0.043,0.017 -0.03,0 -0.049,0.019 -0.018,0.019 -0.018,0.049 0,0.03 0.018,0.049 0.019,0.018 0.049,0.018 0.082,0 0.139,-0.056 0.057,-0.057 0.057,-0.14 l -0.001,-0.323 q 0,-0.056 0.064,-0.061 0.065,-0.006 0.065,-0.068 z"
         style="font-style:normal;font-variant:normal;font-weight:normal;font-stretch:normal;font-size:1.00000036px;line-height:1.25;font-family:'Alba Super';-inkscape-font-specification:'Alba Super';letter-spacing:0px;word-spacing:0px;fill:#246ce1;fill-opacity:1;stroke:#9cf78b;stroke-width:0.03937008;stroke-linejoin:round;stroke-miterlimit:4;stroke-dasharray:none;stroke-opacity:1"
         id="path4605"
         inkscape:connector-curvature="0" />
      <path
         d="m 11.603774,-310.79543 q 0,0.057 -0.039,0.094 -0.038,0.038 -0.094,0.038 -0.056,0 -0.093,-0.036 -0.038,0.038 -0.095,0.038 -0.136,0 -0.228,-0.093 -0.092,-0.092 -0.092,-0.228 0,-0.025 0.004,-0.05 -0.004,-0.025 -0.004,-0.05 0,-0.136 0.092,-0.228 0.092,-0.092 0.228,-0.092 0.136,0 0.228,0.093 0.093,0.092 0.093,0.227 z m -0.065,-0.1 v -0.187 q 0,-0.109 -0.074,-0.182 -0.073,-0.073 -0.182,-0.073 -0.109,0 -0.182,0.073 -0.073,0.073 -0.073,0.182 0,0.109 0.073,0.183 0.073,0.073 0.182,0.073 0.03,0 0.049,-0.019 0.019,-0.019 0.019,-0.049 0,-0.03 -0.019,-0.048 -0.019,-0.019 -0.049,-0.019 -0.05,0 -0.085,-0.035 -0.035,-0.036 -0.035,-0.086 0,-0.05 0.035,-0.085 0.035,-0.035 0.085,-0.035 0.05,0 0.085,0.035 0.036,0.035 0.036,0.085 v 0.187 q 0,0.03 0.018,0.049 0.019,0.018 0.049,0.018 0.03,0 0.049,-0.018 0.019,-0.019 0.019,-0.049 z m -0.215,-0.125 q -0.017,-0.017 -0.041,-0.017 -0.013,0 -0.024,0.005 0.01,0.005 0.031,0.007 0.025,0.002 0.034,0.005 z"
         style="font-style:normal;font-variant:normal;font-weight:normal;font-stretch:normal;font-size:1.00000036px;line-height:1.25;font-family:'Alba Super';-inkscape-font-specification:'Alba Super';letter-spacing:0px;word-spacing:0px;fill:#246ce1;fill-opacity:1;stroke:#9cf78b;stroke-width:0.03937008;stroke-linejoin:round;stroke-miterlimit:4;stroke-dasharray:none;stroke-opacity:1"
         id="path4607"
         inkscape:connector-curvature="0" />
      <path
         d="m 12.132773,-310.94443 q 0,0.118 -0.081,0.199 -0.081,0.082 -0.199,0.082 -0.119,0 -0.2,-0.081 -0.081,-0.081 -0.081,-0.2 v -0.444 q 0,-0.057 0.037,-0.095 0.038,-0.038 0.095,-0.038 0.053,0 0.09,0.034 0.038,0.034 0.043,0.087 h 0.164 q 0.057,0 0.094,0.038 0.038,0.037 0.038,0.094 0,0.028 -0.008,0.052 0.008,0.023 0.008,0.048 0,0.033 -0.011,0.06 0.011,0.026 0.011,0.055 v 0.009 q 0,0.028 -0.005,0.054 0.005,0.018 0.005,0.037 z m -0.065,-0.1 v -0.009 q 0,-0.029 -0.019,-0.048 -0.019,-0.019 -0.048,-0.019 -0.029,0 -0.049,0.019 -0.019,0.019 -0.019,0.048 v 0.009 q 0,0.034 -0.023,0.058 -0.023,0.023 -0.057,0.023 -0.034,0 -0.058,-0.023 -0.023,-0.024 -0.023,-0.058 v -0.156 h 0.229 q 0.067,0 0.067,-0.068 0,-0.03 -0.019,-0.048 -0.018,-0.019 -0.048,-0.019 h -0.229 v -0.053 q 0,-0.03 -0.019,-0.049 -0.019,-0.019 -0.049,-0.019 -0.03,0 -0.049,0.019 -0.018,0.019 -0.018,0.049 v 0.344 q 0,0.093 0.061,0.155 0.062,0.061 0.155,0.061 0.092,0 0.153,-0.062 0.062,-0.062 0.062,-0.154 z m -0.202,0.009 h -0.027 q 0.005,0.007 0.014,0.007 0.009,0 0.013,-0.007 z"
         style="font-style:normal;font-variant:normal;font-weight:normal;font-stretch:normal;font-size:1.00000036px;line-height:1.25;font-family:'Alba Super';-inkscape-font-specification:'Alba Super';letter-spacing:0px;word-spacing:0px;fill:#246ce1;fill-opacity:1;stroke:#9cf78b;stroke-width:0.03937008;stroke-linejoin:round;stroke-miterlimit:4;stroke-dasharray:none;stroke-opacity:1"
         id="path4609"
         inkscape:connector-curvature="0" />
      <path
         d="m 12.655772,-310.94443 q 0,0.118 -0.081,0.199 -0.081,0.082 -0.199,0.082 -0.119,0 -0.2,-0.081 -0.081,-0.081 -0.081,-0.2 v -0.324 q 0,-0.057 0.037,-0.095 0.038,-0.038 0.095,-0.038 0.057,0 0.095,0.038 0.038,0.038 0.038,0.095 v 0.224 q 0,0.016 0.016,0.016 0.015,0 0.015,-0.016 v -0.226 q 0,-0.057 0.038,-0.094 0.038,-0.038 0.095,-0.038 0.057,0 0.094,0.038 0.038,0.037 0.038,0.094 z m -0.065,-0.1 v -0.226 q 0,-0.03 -0.019,-0.048 -0.018,-0.019 -0.048,-0.019 -0.03,0 -0.049,0.019 -0.019,0.018 -0.019,0.048 v 0.226 q 0,0.034 -0.023,0.058 -0.023,0.023 -0.057,0.023 -0.034,0 -0.058,-0.023 -0.023,-0.024 -0.023,-0.058 v -0.224 q 0,-0.03 -0.019,-0.049 -0.019,-0.019 -0.049,-0.019 -0.03,0 -0.049,0.019 -0.018,0.019 -0.018,0.049 v 0.224 q 0,0.093 0.061,0.155 0.062,0.061 0.155,0.061 0.092,0 0.153,-0.062 0.062,-0.062 0.062,-0.154 z"
         style="font-style:normal;font-variant:normal;font-weight:normal;font-stretch:normal;font-size:1.00000036px;line-height:1.25;font-family:'Alba Super';-inkscape-font-specification:'Alba Super';letter-spacing:0px;word-spacing:0px;fill:#246ce1;fill-opacity:1;stroke:#9cf78b;stroke-width:0.03937008;stroke-linejoin:round;stroke-miterlimit:4;stroke-dasharray:none;stroke-opacity:1"
         id="path4611"
         inkscape:connector-curvature="0" />
      <path
         d="m 13.036772,-311.17043 q 0,0.059 -0.036,0.094 -0.035,0.034 -0.092,0.039 -0.02,10e-4 -0.02,0.015 v 0.227 q 0,0.057 -0.038,0.094 -0.038,0.038 -0.095,0.038 -0.057,0 -0.095,-0.038 -0.037,-0.037 -0.037,-0.094 v -0.327 q 0,-0.118 0.081,-0.199 0.082,-0.081 0.200001,-0.081 0.056,0 0.094,0.038 0.038,0.038 0.038,0.094 0,0.028 -0.009,0.051 0.009,0.023 0.009,0.049 z m -0.065,-0.1 q 0,-0.029 -0.019,-0.048 -0.019,-0.019 -0.048,-0.019 -0.092,0 -0.154001,0.062 -0.062,0.061 -0.062,0.153 v 0.227 q 0,0.03 0.018,0.049 0.019,0.018 0.049,0.018 0.03,0 0.049,-0.018 0.019,-0.019 0.019,-0.049 v -0.227 q 0,-0.034 0.022,-0.055 0.023,-0.022 0.057,-0.025 0.069,-0.006 0.069,-0.068 z"
         style="font-style:normal;font-variant:normal;font-weight:normal;font-stretch:normal;font-size:1.00000036px;line-height:1.25;font-family:'Alba Super';-inkscape-font-specification:'Alba Super';letter-spacing:0px;word-spacing:0px;fill:#246ce1;fill-opacity:1;stroke:#9cf78b;stroke-width:0.03937008;stroke-linejoin:round;stroke-miterlimit:4;stroke-dasharray:none;stroke-opacity:1"
         id="path4613"
         inkscape:connector-curvature="0" />
      <path
         d="m 13.636772,-310.98343 q 0,0.134 -0.094,0.227 -0.093,0.093 -0.227,0.093 -0.135001,0 -0.228001,-0.093 -0.092,-0.092 -0.092,-0.227 0,-0.025 0.004,-0.05 -0.004,-0.025 -0.004,-0.05 0,-0.136 0.092,-0.228 0.092,-0.093 0.228001,-0.093 0.03,0 0.056,0.011 v -0.082 q 0,-0.056 0.038,-0.094 0.038,-0.038 0.094,-0.038 0.057,0 0.095,0.038 0.038,0.037 0.038,0.094 z m -0.065,-0.1 v -0.392 q 0,-0.03 -0.019,-0.048 -0.019,-0.019 -0.049,-0.019 -0.029,0 -0.048,0.019 -0.019,0.019 -0.019,0.048 v 0.392 q 0,0.05 -0.036,0.085 -0.035,0.035 -0.085,0.035 -0.05,0 -0.085,-0.035 -0.035,-0.035 -0.035,-0.085 0,-0.05 0.035,-0.085 0.035,-0.036 0.085,-0.036 0.03,0 0.049,-0.018 0.019,-0.019 0.019,-0.049 0,-0.03 -0.019,-0.049 -0.019,-0.019 -0.049,-0.019 -0.109001,0 -0.182001,0.074 -0.073,0.073 -0.073,0.182 0,0.108 0.073,0.182 0.074,0.073 0.182001,0.073 0.108,0 0.182,-0.073 0.074,-0.074 0.074,-0.182 z m -0.216,0.038 q -0.023,0.001 -0.064,0.012 0.011,0.005 0.024,0.005 0.024,0 0.04,-0.017 z"
         style="font-style:normal;font-variant:normal;font-weight:normal;font-stretch:normal;font-size:1.00000036px;line-height:1.25;font-family:'Alba Super';-inkscape-font-specification:'Alba Super';letter-spacing:0px;word-spacing:0px;fill:#246ce1;fill-opacity:1;stroke:#9cf78b;stroke-width:0.03937008;stroke-linejoin:round;stroke-miterlimit:4;stroke-dasharray:none;stroke-opacity:1"
         id="path4615"
         inkscape:connector-curvature="0" />
      <path
         d="m 14.245771,-310.79543 q 0,0.057 -0.039,0.094 -0.038,0.038 -0.094,0.038 -0.056,0 -0.093,-0.036 -0.038,0.038 -0.095,0.038 -0.136,0 -0.228,-0.093 -0.092,-0.092 -0.092,-0.228 0,-0.025 0.004,-0.05 -0.004,-0.025 -0.004,-0.05 0,-0.136 0.092,-0.228 0.092,-0.092 0.228,-0.092 0.136,0 0.228,0.093 0.093,0.092 0.093,0.227 z m -0.065,-0.1 v -0.187 q 0,-0.109 -0.074,-0.182 -0.073,-0.073 -0.182,-0.073 -0.109,0 -0.182,0.073 -0.073,0.073 -0.073,0.182 0,0.109 0.073,0.183 0.073,0.073 0.182,0.073 0.03,0 0.049,-0.019 0.019,-0.019 0.019,-0.049 0,-0.03 -0.019,-0.048 -0.019,-0.019 -0.049,-0.019 -0.05,0 -0.085,-0.035 -0.035,-0.036 -0.035,-0.086 0,-0.05 0.035,-0.085 0.035,-0.035 0.085,-0.035 0.05,0 0.085,0.035 0.036,0.035 0.036,0.085 v 0.187 q 0,0.03 0.018,0.049 0.019,0.018 0.049,0.018 0.03,0 0.049,-0.018 0.019,-0.019 0.019,-0.049 z m -0.215,-0.125 q -0.017,-0.017 -0.041,-0.017 -0.013,0 -0.024,0.005 0.01,0.005 0.031,0.007 0.025,0.002 0.034,0.005 z"
         style="font-style:normal;font-variant:normal;font-weight:normal;font-stretch:normal;font-size:1.00000036px;line-height:1.25;font-family:'Alba Super';-inkscape-font-specification:'Alba Super';letter-spacing:0px;word-spacing:0px;fill:#246ce1;fill-opacity:1;stroke:#9cf78b;stroke-width:0.03937008;stroke-linejoin:round;stroke-miterlimit:4;stroke-dasharray:none;stroke-opacity:1"
         id="path4617"
         inkscape:connector-curvature="0" />
      <path
         d="m 14.774771,-310.72443 q 0,0.118 -0.082,0.199 -0.081,0.082 -0.199001,0.082 -0.059,0 -0.098,-0.037 -0.039,-0.037 -0.039,-0.095 0,-0.026 0.009,-0.05 -0.009,-0.023 -0.009,-0.05 0,-0.011 0.002,-0.021 -0.067,-0.036 -0.106,-0.102 -0.039,-0.065 -0.039,-0.146 v -0.326 q 0,-0.057 0.037,-0.094 0.038,-0.038 0.095,-0.038 0.061,0 0.097,0.036 0.036,0.035 0.036,0.096 v 0.226 q 0,0.016 0.016,0.016 0.015,0 0.015,-0.016 v -0.226 q 0,-0.057 0.038,-0.094 0.038,-0.038 0.095,-0.038 0.057,0 0.094,0.038 0.038,0.037 0.038,0.094 z m -0.065,-0.1 v -0.446 q 0,-0.03 -0.019,-0.048 -0.018,-0.019 -0.048,-0.019 -0.03,0 -0.049,0.019 -0.019,0.018 -0.019,0.048 v 0.226 q 0,0.034 -0.023,0.058 -0.023,0.023 -0.057,0.023 -0.034,0 -0.058,-0.023 -0.023,-0.024 -0.023,-0.058 v -0.226 q 0,-0.067 -0.068,-0.067 -0.03,0 -0.049,0.019 -0.018,0.018 -0.018,0.048 v 0.226 q 0,0.093 0.061,0.155 0.062,0.061 0.155,0.061 0.042,0 0.08,-0.015 v 0.019 q 0,0.033 -0.024,0.057 -0.024,0.024 -0.057,0.024 h -0.004 q -0.03,0 -0.049,0.019 -0.019,0.019 -0.019,0.049 0,0.03 0.019,0.048 0.019,0.019 0.049,0.019 h 0.004 q 0.092,0 0.154001,-0.062 0.062,-0.062 0.062,-0.154 z"
         style="font-style:normal;font-variant:normal;font-weight:normal;font-stretch:normal;font-size:1.00000036px;line-height:1.25;font-family:'Alba Super';-inkscape-font-specification:'Alba Super';letter-spacing:0px;word-spacing:0px;fill:#246ce1;fill-opacity:1;stroke:#9cf78b;stroke-width:0.03937008;stroke-linejoin:round;stroke-miterlimit:4;stroke-dasharray:none;stroke-opacity:1"
         id="path4619"
         inkscape:connector-curvature="0" />
      <path
         d="m 15.036769,-310.69743 q 0,0.061 -0.044,0.104 -0.043,0.044 -0.104,0.044 -0.061,0 -0.105,-0.044 -0.043,-0.043 -0.043,-0.104 v -0.223 q 0,-0.061 0.043,-0.104 0.044,-0.043 0.105,-0.043 0.061,0 0.104,0.043 0.044,0.043 0.044,0.104 z m -0.065,-0.1 v -0.123 q 0,-0.034 -0.025,-0.058 -0.024,-0.024 -0.058,-0.024 -0.034,0 -0.059,0.024 -0.024,0.024 -0.024,0.058 v 0.123 q 0,0.034 0.024,0.058 0.025,0.025 0.059,0.025 0.034,0 0.058,-0.025 0.025,-0.024 0.025,-0.058 z"
         style="font-style:normal;font-variant:normal;font-weight:normal;font-stretch:normal;font-size:1.00000036px;line-height:1.25;font-family:'Alba Super';-inkscape-font-specification:'Alba Super';letter-spacing:0px;word-spacing:0px;fill:#246ce1;fill-opacity:1;stroke:#9cf78b;stroke-width:0.03937008;stroke-linejoin:round;stroke-miterlimit:4;stroke-dasharray:none;stroke-opacity:1"
         id="path4621"
         inkscape:connector-curvature="0" />
      <path
         d="m 16.023769,-310.57543 q 0,0.057 -0.039,0.094 -0.038,0.038 -0.094,0.038 -0.121,0 -0.203,-0.08 -0.082,-0.08 -0.082,-0.201 v -0.058 l -0.001,-0.444 q 0,-0.016 -0.015,-0.016 -0.016,0 -0.016,0.016 v 0.431 q 0,0.057 -0.038,0.094 -0.038,0.038 -0.095,0.038 -0.057,0 -0.095,-0.038 -0.037,-0.037 -0.037,-0.094 v -0.531 q 0,-0.118 0.081,-0.199 0.082,-0.082 0.2,-0.082 0.113,0 0.195,0.077 0.085,0.08 0.085,0.192 l 10e-4,0.514 q 0,0.016 0.016,0.016 0.059,0 0.098,0.037 0.039,0.038 0.039,0.096 0,0.027 -0.009,0.05 0.009,0.023 0.009,0.05 z m -0.065,-0.1 q 0,-0.03 -0.019,-0.049 -0.019,-0.019 -0.049,-0.019 h -0.004 q -0.034,0 -0.058,-0.024 -0.023,-0.023 -0.023,-0.057 l -10e-4,-0.514 q 0,-0.085 -0.065,-0.144 -0.064,-0.06 -0.15,-0.06 -0.092,0 -0.154,0.062 -0.062,0.062 -0.062,0.154 v 0.431 q 0,0.03 0.018,0.049 0.019,0.018 0.049,0.018 0.03,0 0.049,-0.018 0.019,-0.019 0.019,-0.049 v -0.431 q 0,-0.034 0.023,-0.057 0.024,-0.024 0.058,-0.024 0.033,0 0.056,0.024 0.024,0.024 0.024,0.057 l 10e-4,0.502 q 0,0.093 0.061,0.154 0.062,0.062 0.155,0.062 h 0.004 q 0.03,0 0.049,-0.019 0.019,-0.018 0.019,-0.048 z"
         style="font-style:normal;font-variant:normal;font-weight:normal;font-stretch:normal;font-size:1.00000036px;line-height:1.25;font-family:'Alba Super';-inkscape-font-specification:'Alba Super';letter-spacing:0px;word-spacing:0px;fill:#246ce1;fill-opacity:1;stroke:#9cf78b;stroke-width:0.03937008;stroke-linejoin:round;stroke-miterlimit:4;stroke-dasharray:none;stroke-opacity:1"
         id="path4623"
         inkscape:connector-curvature="0" />
      <path
         d="m 16.478768,-310.98243 q 0,0.135 -0.093,0.228 -0.093,0.093 -0.228,0.093 -0.136,0 -0.228,-0.093 -0.092,-0.092 -0.092,-0.228 0,-0.025 0.004,-0.05 -0.004,-0.025 -0.004,-0.05 0,-0.136 0.092,-0.228 0.092,-0.092 0.228,-0.092 0.136,0 0.228,0.092 0.093,0.092 0.093,0.228 0,0.026 -0.004,0.051 0.004,0.024 0.004,0.049 z m -0.065,-0.1 q 0,-0.109 -0.074,-0.182 -0.073,-0.073 -0.182,-0.073 -0.109,0 -0.182,0.073 -0.073,0.073 -0.073,0.182 0,0.109 0.073,0.183 0.073,0.073 0.182,0.073 0.109,0 0.182,-0.073 0.074,-0.074 0.074,-0.183 z m -0.135,0 q 0,0.05 -0.036,0.086 -0.035,0.035 -0.085,0.035 -0.05,0 -0.085,-0.035 -0.035,-0.036 -0.035,-0.086 0,-0.05 0.035,-0.085 0.035,-0.035 0.085,-0.035 0.05,0 0.085,0.035 0.036,0.035 0.036,0.085 z"
         style="font-style:normal;font-variant:normal;font-weight:normal;font-stretch:normal;font-size:1.00000036px;line-height:1.25;font-family:'Alba Super';-inkscape-font-specification:'Alba Super';letter-spacing:0px;word-spacing:0px;fill:#246ce1;fill-opacity:1;stroke:#9cf78b;stroke-width:0.03937008;stroke-linejoin:round;stroke-miterlimit:4;stroke-dasharray:none;stroke-opacity:1"
         id="path4625"
         inkscape:connector-curvature="0" />
      <path
         d="m 16.981767,-311.17243 q 0,0.025 -0.009,0.049 l -0.145,0.375 q -0.037,0.096 -0.124,0.096 -0.087,0 -0.124,-0.096 l -0.145,-0.375 q -0.009,-0.024 -0.009,-0.049 0,-0.026 0.01,-0.049 l -10e-4,-0.002 q -0.009,-0.024 -0.009,-0.049 0,-0.055 0.04,-0.093 0.04,-0.038 0.095,-0.038 0.062,0 0.096,0.044 0.019,0.023 0.047,0.097 0.028,-0.074 0.047,-0.097 0.034,-0.044 0.096,-0.044 0.055,0 0.095,0.038 0.04,0.038 0.04,0.093 0,0.025 -0.009,0.049 l -0.001,0.002 q 0.01,0.023 0.01,0.049 z m -0.065,-0.1 q 0,-0.028 -0.021,-0.047 -0.021,-0.019 -0.049,-0.019 -0.044,0 -0.061,0.044 l -0.082,0.212 -0.082,-0.212 q -0.017,-0.044 -0.061,-0.044 -0.028,0 -0.049,0.019 -0.021,0.019 -0.021,0.047 0,0.013 0.005,0.026 l 0.145,0.375 q 0.021,0.054 0.063,0.054 0.042,0 0.063,-0.054 l 0.145,-0.375 q 0.005,-0.013 0.005,-0.026 z"
         style="font-style:normal;font-variant:normal;font-weight:normal;font-stretch:normal;font-size:1.00000036px;line-height:1.25;font-family:'Alba Super';-inkscape-font-specification:'Alba Super';letter-spacing:0px;word-spacing:0px;fill:#246ce1;fill-opacity:1;stroke:#9cf78b;stroke-width:0.03937008;stroke-linejoin:round;stroke-miterlimit:4;stroke-dasharray:none;stroke-opacity:1"
         id="path4627"
         inkscape:connector-curvature="0" />
      <path
         d="m 17.531766,-311.11343 q 0,0.063 -0.051,0.104 -0.008,0.008 -0.028,0.029 0.03,0.036 0.03,0.086 0,0.026 -0.009,0.05 0.009,0.024 0.009,0.05 0,0.057 -0.038,0.095 -0.037,0.038 -0.094,0.038 h -0.089 q -0.135,0 -0.228,-0.093 -0.092,-0.092 -0.092,-0.228 0,-0.025 0.004,-0.05 -0.004,-0.025 -0.004,-0.05 0,-0.136 0.092,-0.228 0.092,-0.092 0.228,-0.092 0.089,0 0.173,0.049 0.097,0.056 0.097,0.14 0,0.027 -0.01,0.05 0.01,0.024 0.01,0.05 z m -0.065,-0.1 q 0,-0.025 -0.02,-0.046 -0.076,-0.078 -0.185,-0.078 -0.109,0 -0.182,0.073 -0.073,0.073 -0.073,0.182 0,0.109 0.073,0.183 0.073,0.073 0.182,0.073 h 0.089 q 0.03,0 0.048,-0.019 0.019,-0.019 0.019,-0.049 0,-0.03 -0.019,-0.048 -0.018,-0.019 -0.048,-0.019 h -0.089 q -0.05,0 -0.085,-0.035 -0.035,-0.036 -0.035,-0.086 0,-0.05 0.035,-0.085 0.035,-0.035 0.085,-0.035 0.013,0 0.026,0.002 l -0.072,0.071 q -0.022,0.022 -0.022,0.047 0,0.028 0.02,0.049 0.021,0.021 0.049,0.021 0.025,0 0.047,-0.021 l 0.128,-0.125 q 0.029,-0.022 0.029,-0.055 z"
         style="font-style:normal;font-variant:normal;font-weight:normal;font-stretch:normal;font-size:1.00000036px;line-height:1.25;font-family:'Alba Super';-inkscape-font-specification:'Alba Super';letter-spacing:0px;word-spacing:0px;fill:#246ce1;fill-opacity:1;stroke:#9cf78b;stroke-width:0.03937008;stroke-linejoin:round;stroke-miterlimit:4;stroke-dasharray:none;stroke-opacity:1"
         id="path4629"
         inkscape:connector-curvature="0" />
      <path
         d="m 18.490765,-310.57543 q 0,0.057 -0.038,0.094 -0.038,0.038 -0.095,0.038 -0.12,0 -0.203,-0.081 -0.082,-0.08 -0.082,-0.2 v -0.298 q 0,-0.015 -0.014,-0.015 v 0.242 q 0,0.057 -0.038,0.094 -0.038,0.038 -0.095,0.038 -0.057,0 -0.095,-0.038 -0.037,-0.037 -0.037,-0.094 v -0.227 q 0,-0.015 -0.016,-0.015 -0.016,0 -0.016,0.015 v 0.227 q 0,0.057 -0.038,0.094 -0.037,0.038 -0.094,0.038 -0.057,0 -0.095,-0.038 -0.038,-0.037 -0.038,-0.094 v -0.327 q 0,-0.118 0.081,-0.199 0.082,-0.081 0.2,-0.081 0.076,0 0.14,0.037 0.063,-0.037 0.14,-0.037 0.118,0 0.199,0.081 0.081,0.081 0.081,0.199 v 0.298 q 0,0.016 0.016,0.016 0.059,0 0.098,0.037 0.039,0.038 0.039,0.096 0,0.026 -0.009,0.05 0.009,0.023 0.009,0.05 z m -0.065,-0.1 q 0,-0.03 -0.019,-0.049 -0.019,-0.019 -0.049,-0.019 h -0.004 q -0.034,0 -0.058,-0.024 -0.023,-0.023 -0.023,-0.057 v -0.298 q 0,-0.092 -0.062,-0.153 -0.061,-0.062 -0.153,-0.062 -0.08,0 -0.14,0.051 -0.061,-0.051 -0.14,-0.051 -0.092,0 -0.154,0.062 -0.062,0.061 -0.062,0.153 v 0.227 q 0,0.03 0.019,0.049 0.019,0.018 0.049,0.018 0.03,0 0.048,-0.018 0.019,-0.019 0.019,-0.049 v -0.227 q 0,-0.034 0.023,-0.057 0.024,-0.023 0.058,-0.023 0.033,0 0.057,0.024 0.024,0.023 0.024,0.056 v 0.227 q 0,0.03 0.018,0.049 0.019,0.018 0.049,0.018 0.03,0 0.049,-0.018 0.019,-0.019 0.019,-0.049 v -0.276 q 0.024,-0.031 0.064,-0.031 0.033,0 0.056,0.024 0.024,0.023 0.024,0.056 v 0.298 q 0,0.092 0.062,0.154 0.062,0.062 0.154,0.062 h 0.004 q 0.03,0 0.049,-0.019 0.019,-0.018 0.019,-0.048 z"
         style="font-style:normal;font-variant:normal;font-weight:normal;font-stretch:normal;font-size:1.00000036px;line-height:1.25;font-family:'Alba Super';-inkscape-font-specification:'Alba Super';letter-spacing:0px;word-spacing:0px;fill:#246ce1;fill-opacity:1;stroke:#9cf78b;stroke-width:0.03937008;stroke-linejoin:round;stroke-miterlimit:4;stroke-dasharray:none;stroke-opacity:1"
         id="path4631"
         inkscape:connector-curvature="0" />
      <path
         d="m 18.945764,-310.98343 q 0,0.134 -0.094,0.227 -0.093,0.093 -0.227,0.093 -0.135,0 -0.228,-0.093 -0.092,-0.092 -0.092,-0.227 v -0.492 q 0,-0.056 0.038,-0.094 0.038,-0.038 0.094,-0.038 0.057,0 0.095,0.038 0.038,0.037 0.038,0.094 v 0.082 q 0.026,-0.011 0.055,-0.011 0.136,0 0.228,0.093 0.093,0.092 0.093,0.228 0,0.026 -0.004,0.05 0.004,0.025 0.004,0.05 z m -0.065,-0.1 q 0,-0.109 -0.074,-0.182 -0.073,-0.074 -0.182,-0.074 -0.03,0 -0.049,0.019 -0.018,0.019 -0.018,0.049 0,0.03 0.018,0.049 0.019,0.018 0.049,0.018 0.05,0 0.085,0.036 0.036,0.035 0.036,0.085 0,0.05 -0.036,0.085 -0.035,0.035 -0.085,0.035 -0.05,0 -0.085,-0.035 -0.035,-0.035 -0.035,-0.085 v -0.392 q 0,-0.03 -0.019,-0.048 -0.019,-0.019 -0.049,-0.019 -0.029,0 -0.048,0.019 -0.019,0.019 -0.019,0.048 v 0.392 q 0,0.108 0.073,0.182 0.074,0.073 0.182,0.073 0.108,0 0.182,-0.073 0.074,-0.074 0.074,-0.182 z m -0.231,0.05 q -0.011,-0.005 -0.032,-0.007 -0.024,-0.002 -0.033,-0.005 0.016,0.017 0.04,0.017 0.013,0 0.025,-0.005 z"
         style="font-style:normal;font-variant:normal;font-weight:normal;font-stretch:normal;font-size:1.00000036px;line-height:1.25;font-family:'Alba Super';-inkscape-font-specification:'Alba Super';letter-spacing:0px;word-spacing:0px;fill:#246ce1;fill-opacity:1;stroke:#9cf78b;stroke-width:0.03937008;stroke-linejoin:round;stroke-miterlimit:4;stroke-dasharray:none;stroke-opacity:1"
         id="path4633"
         inkscape:connector-curvature="0" />
      <path
         d="m 19.499764,-311.11343 q 0,0.063 -0.051,0.104 -0.008,0.008 -0.028,0.029 0.03,0.036 0.03,0.086 0,0.026 -0.009,0.05 0.009,0.024 0.009,0.05 0,0.057 -0.038,0.095 -0.037,0.038 -0.094,0.038 h -0.089 q -0.135,0 -0.228,-0.093 -0.092,-0.092 -0.092,-0.228 0,-0.025 0.004,-0.05 -0.004,-0.025 -0.004,-0.05 0,-0.136 0.092,-0.228 0.092,-0.092 0.228,-0.092 0.089,0 0.173001,0.049 0.097,0.056 0.097,0.14 0,0.027 -0.01,0.05 0.01,0.024 0.01,0.05 z m -0.065,-0.1 q 0,-0.025 -0.02,-0.046 -0.076,-0.078 -0.185001,-0.078 -0.109,0 -0.182,0.073 -0.073,0.073 -0.073,0.182 0,0.109 0.073,0.183 0.073,0.073 0.182,0.073 h 0.089 q 0.03,0 0.048,-0.019 0.019,-0.019 0.019,-0.049 0,-0.03 -0.019,-0.048 -0.018,-0.019 -0.048,-0.019 h -0.089 q -0.05,0 -0.085,-0.035 -0.035,-0.036 -0.035,-0.086 0,-0.05 0.035,-0.085 0.035,-0.035 0.085,-0.035 0.013,0 0.026,0.002 l -0.072,0.071 q -0.022,0.022 -0.022,0.047 0,0.028 0.02,0.049 0.021,0.021 0.049,0.021 0.025,0 0.047,-0.021 l 0.128001,-0.125 q 0.029,-0.022 0.029,-0.055 z"
         style="font-style:normal;font-variant:normal;font-weight:normal;font-stretch:normal;font-size:1.00000036px;line-height:1.25;font-family:'Alba Super';-inkscape-font-specification:'Alba Super';letter-spacing:0px;word-spacing:0px;fill:#246ce1;fill-opacity:1;stroke:#9cf78b;stroke-width:0.03937008;stroke-linejoin:round;stroke-miterlimit:4;stroke-dasharray:none;stroke-opacity:1"
         id="path4635"
         inkscape:connector-curvature="0" />
      <path
         d="m 19.877762,-311.17043 q 0,0.059 -0.036,0.094 -0.035,0.034 -0.092,0.039 -0.02,10e-4 -0.02,0.015 v 0.227 q 0,0.057 -0.038,0.094 -0.038,0.038 -0.095,0.038 -0.057,0 -0.095,-0.038 -0.037,-0.037 -0.037,-0.094 v -0.327 q 0,-0.118 0.081,-0.199 0.082,-0.081 0.2,-0.081 0.056,0 0.094,0.038 0.038,0.038 0.038,0.094 0,0.028 -0.009,0.051 0.009,0.023 0.009,0.049 z m -0.065,-0.1 q 0,-0.029 -0.019,-0.048 -0.019,-0.019 -0.048,-0.019 -0.092,0 -0.154,0.062 -0.062,0.061 -0.062,0.153 v 0.227 q 0,0.03 0.018,0.049 0.019,0.018 0.049,0.018 0.03,0 0.049,-0.018 0.019,-0.019 0.019,-0.049 v -0.227 q 0,-0.034 0.022,-0.055 0.023,-0.022 0.057,-0.025 0.069,-0.006 0.069,-0.068 z"
         style="font-style:normal;font-variant:normal;font-weight:normal;font-stretch:normal;font-size:1.00000036px;line-height:1.25;font-family:'Alba Super';-inkscape-font-specification:'Alba Super';letter-spacing:0px;word-spacing:0px;fill:#246ce1;fill-opacity:1;stroke:#9cf78b;stroke-width:0.03937008;stroke-linejoin:round;stroke-miterlimit:4;stroke-dasharray:none;stroke-opacity:1"
         id="path4637"
         inkscape:connector-curvature="0" />
      <path
         d="m 20.780762,-310.79543 q 0,0.057 -0.038,0.094 -0.038,0.038 -0.095,0.038 h -0.376 q -0.059,0 -0.097,-0.028 -0.045,-0.032 -0.045,-0.095 0,-0.024 0.01,-0.048 -0.01,-0.023 -0.01,-0.052 0,-0.05 0.043,-0.096 0.029,-0.031 0.092,-0.072 -0.054,-0.003 -0.09,-0.04 -0.035,-0.038 -0.035,-0.093 0,-0.031 0.005,-0.061 -0.005,-0.019 -0.005,-0.039 0,-0.136 0.092,-0.228 0.092,-0.092 0.228,-0.092 0.136,0 0.228,0.092 0.093,0.092 0.093,0.228 0,0.024 -0.004,0.048 0.004,0.026 0.004,0.052 0,0.093 -0.058,0.181 0.058,0.038 0.058,0.111 0,0.026 -0.009,0.05 0.009,0.024 0.009,0.05 z m -0.292,-0.439 q -0.013,-0.008 -0.029,-0.008 -0.023,0 -0.039,0.016 -0.016,0.016 -0.016,0.039 0,0.019 -0.005,0.037 0.06,-0.049 0.089,-0.084 z m 0.227,0.339 q 0,-0.03 -0.019,-0.049 -0.019,-0.019 -0.049,-0.019 h -0.164 q 0.11,-0.087 0.154,-0.138 0.078,-0.09 0.078,-0.186 0,-0.109 -0.074,-0.182 -0.073,-0.073 -0.182,-0.073 -0.109,0 -0.182,0.073 -0.073,0.073 -0.073,0.182 0,0.03 0.018,0.049 0.019,0.019 0.049,0.019 0.03,0 0.049,-0.019 0.019,-0.019 0.019,-0.049 0,-0.05 0.035,-0.085 0.035,-0.035 0.085,-0.035 0.05,0 0.085,0.035 0.036,0.035 0.036,0.085 0,0.089 -0.213,0.243 -0.075,0.054 -0.131,0.091 -0.042,0.028 -0.042,0.067 0,0.058 0.077,0.058 h 0.376 q 0.03,0 0.049,-0.018 0.019,-0.019 0.019,-0.049 z"
         style="font-style:normal;font-variant:normal;font-weight:normal;font-stretch:normal;font-size:1.00000036px;line-height:1.25;font-family:'Alba Super';-inkscape-font-specification:'Alba Super';letter-spacing:0px;word-spacing:0px;fill:#246ce1;fill-opacity:1;stroke:#9cf78b;stroke-width:0.03937008;stroke-linejoin:round;stroke-miterlimit:4;stroke-dasharray:none;stroke-opacity:1"
         id="path4639"
         inkscape:connector-curvature="0" />
      <path
         d="m 21.316762,-310.95143 q 0,0.121 -0.084,0.204 -0.083,0.084 -0.204,0.084 -0.121,0 -0.205,-0.084 -0.083,-0.083 -0.083,-0.204 0,-0.026 0.004,-0.05 -0.004,-0.025 -0.004,-0.05 0,-0.069 0.029,-0.128 -0.007,-0.03 -0.007,-0.062 0,-0.025 0.004,-0.05 -0.004,-0.024 -0.004,-0.05 0,-0.109 0.075,-0.188 0.075,-0.079 0.191,-0.079 0.113,0 0.19,0.077 0.077,0.077 0.077,0.19 0,0.025 -0.004,0.05 0.004,0.024 0.004,0.05 0,0.033 -0.007,0.063 0.028,0.058 0.028,0.127 0,0.026 -0.004,0.05 0.004,0.024 0.004,0.05 z m -0.065,-0.1 q 0,-0.095 -0.068,-0.161 0.047,-0.056 0.047,-0.129 0,-0.086 -0.058,-0.144 -0.058,-0.058 -0.144,-0.058 -0.085,0 -0.143,0.058 -0.058,0.058 -0.058,0.144 0,0.073 0.046,0.129 -0.068,0.066 -0.068,0.161 0,0.095 0.064,0.159 0.064,0.064 0.159,0.064 0.095,0 0.159,-0.064 0.064,-0.064 0.064,-0.159 z m -0.156,-0.29 q 0,0.028 -0.02,0.047 -0.019,0.019 -0.047,0.019 -0.027,0 -0.047,-0.019 -0.019,-0.02 -0.019,-0.047 0,-0.028 0.019,-0.047 0.019,-0.02 0.047,-0.02 0.028,0 0.047,0.02 0.02,0.019 0.02,0.047 z m 0.021,0.29 q 0,0.037 -0.026,0.063 -0.025,0.025 -0.062,0.025 -0.036,0 -0.062,-0.026 -0.026,-0.026 -0.026,-0.062 0,-0.037 0.025,-0.063 0.026,-0.026 0.063,-0.026 0.037,0 0.062,0.026 0.026,0.026 0.026,0.063 z"
         style="font-style:normal;font-variant:normal;font-weight:normal;font-stretch:normal;font-size:1.00000036px;line-height:1.25;font-family:'Alba Super';-inkscape-font-specification:'Alba Super';letter-spacing:0px;word-spacing:0px;fill:#246ce1;fill-opacity:1;stroke:#9cf78b;stroke-width:0.03937008;stroke-linejoin:round;stroke-miterlimit:4;stroke-dasharray:none;stroke-opacity:1"
         id="path4641"
         inkscape:connector-curvature="0" />
      <path
         d="m 21.843762,-310.94443 q 0,0.118 -0.081,0.199 -0.081,0.082 -0.199,0.082 -0.119,0 -0.2,-0.081 -0.081,-0.081 -0.081,-0.2 v -0.444 q 0,-0.057 0.037,-0.095 0.038,-0.038 0.095,-0.038 0.053,0 0.09,0.034 0.038,0.034 0.043,0.087 h 0.164 q 0.057,0 0.094,0.038 0.038,0.037 0.038,0.094 0,0.028 -0.008,0.052 0.008,0.023 0.008,0.048 0,0.033 -0.011,0.06 0.011,0.026 0.011,0.055 v 0.009 q 0,0.028 -0.005,0.054 0.005,0.018 0.005,0.037 z m -0.065,-0.1 v -0.009 q 0,-0.029 -0.019,-0.048 -0.019,-0.019 -0.048,-0.019 -0.029,0 -0.049,0.019 -0.019,0.019 -0.019,0.048 v 0.009 q 0,0.034 -0.023,0.058 -0.023,0.023 -0.057,0.023 -0.034,0 -0.058,-0.023 -0.023,-0.024 -0.023,-0.058 v -0.156 h 0.229 q 0.067,0 0.067,-0.068 0,-0.03 -0.019,-0.048 -0.018,-0.019 -0.048,-0.019 h -0.229 v -0.053 q 0,-0.03 -0.019,-0.049 -0.019,-0.019 -0.049,-0.019 -0.03,0 -0.049,0.019 -0.018,0.019 -0.018,0.049 v 0.344 q 0,0.093 0.061,0.155 0.062,0.061 0.155,0.061 0.092,0 0.153,-0.062 0.062,-0.062 0.062,-0.154 z m -0.202,0.009 h -0.027 q 0.005,0.007 0.014,0.007 0.009,0 0.013,-0.007 z"
         style="font-style:normal;font-variant:normal;font-weight:normal;font-stretch:normal;font-size:1.00000036px;line-height:1.25;font-family:'Alba Super';-inkscape-font-specification:'Alba Super';letter-spacing:0px;word-spacing:0px;fill:#246ce1;fill-opacity:1;stroke:#9cf78b;stroke-width:0.03937008;stroke-linejoin:round;stroke-miterlimit:4;stroke-dasharray:none;stroke-opacity:1"
         id="path4643"
         inkscape:connector-curvature="0" />
      <path
         d="m 22.519761,-310.57543 q 0,0.057 -0.038,0.094 -0.037,0.038 -0.094,0.038 -0.121,0 -0.203,-0.081 -0.082,-0.08 -0.082,-0.2 l -0.001,-0.298 q 0,-0.015 -0.015,-0.015 -0.016,0 -0.016,0.015 v 0.227 q 0,0.057 -0.038,0.094 -0.038,0.038 -0.095,0.038 -0.057,0 -0.095,-0.038 -0.037,-0.037 -0.037,-0.094 v -0.68 q 0,-0.057 0.037,-0.094 0.038,-0.038 0.095,-0.038 0.057,0 0.095,0.038 0.038,0.037 0.038,0.094 v 0.073 q 0.008,0 0.016,0 0.118001,0 0.199001,0.081 0.082,0.081 0.082,0.199 v 0.298 q 0,0.016 0.016,0.016 0.059,0 0.097,0.037 0.039,0.038 0.039,0.096 0,0.027 -0.009,0.05 0.009,0.023 0.009,0.05 z m -0.065,-0.1 q 0,-0.03 -0.019,-0.049 -0.018,-0.019 -0.048,-0.019 h -0.004 q -0.034,0 -0.058,-0.024 -0.023,-0.023 -0.023,-0.057 v -0.298 q 0,-0.092 -0.062,-0.153 -0.062,-0.062 -0.154001,-0.062 -0.043,0 -0.081,0.015 v -0.153 q 0,-0.03 -0.019,-0.048 -0.019,-0.019 -0.049,-0.019 -0.03,0 -0.049,0.019 -0.018,0.018 -0.018,0.048 v 0.58 q 0,0.03 0.018,0.049 0.019,0.018 0.049,0.018 0.03,0 0.049,-0.018 0.019,-0.019 0.019,-0.049 v -0.227 q 0,-0.034 0.023,-0.057 0.024,-0.023 0.058,-0.023 0.033,0 0.056,0.024 0.024,0.023 0.024,0.056 l 0.001,0.298 q 0,0.092 0.062,0.154 0.062,0.062 0.154,0.062 h 0.004 q 0.03,0 0.048,-0.019 0.019,-0.018 0.019,-0.048 z"
         style="font-style:normal;font-variant:normal;font-weight:normal;font-stretch:normal;font-size:1.00000036px;line-height:1.25;font-family:'Alba Super';-inkscape-font-specification:'Alba Super';letter-spacing:0px;word-spacing:0px;fill:#246ce1;fill-opacity:1;stroke:#9cf78b;stroke-width:0.03937008;stroke-linejoin:round;stroke-miterlimit:4;stroke-dasharray:none;stroke-opacity:1"
         id="path4645"
         inkscape:connector-curvature="0" />
    </g>
  </g>
</svg>
